<svg version="1.1" id="a" xmlns="http://www.w3.org/2000/svg" x="0px" y="0px" viewBox="0 0 1000 254.5" style="enable-background:new 0 0 1000 254.5;" xmlns:xlink="http://www.w3.org/1999/xlink" xml:space="preserve">
<style type="text/css">
	.st0{fill:#001F60;}
</style>
<g>
	<g>
		<path class="st0" d="M346.1,146.3c-0.6-2.9-1.7-5.8-3.2-8.5c-1.5-2.8-3.6-5.4-6.4-7.9c-2.7-2.4-6.2-4.8-10.4-7
			c6.6-3.4,11.1-7.6,13.4-12.5c2.4-4.9,3.6-10.1,3.6-15.7c0-5.6-0.8-10.4-2.3-15.1c-1.5-4.6-4.3-8.7-8.3-12.1
			c-3.9-3.5-9.3-6.2-16.1-8.1c-6.8-2-15.5-3-25.9-3h-21.8l-29.2,66.2v75.5H294c10,0,18.3-1.1,25.1-3.4c6.8-2.3,12.2-5.3,16.3-9.2
			c4.2-3.8,7.2-8.4,8.9-13.6c1.8-5.3,2.7-11,2.7-16.9C347,152.1,346.7,149.3,346.1,146.3L346.1,146.3z M268.2,79.6h21.4
			c9,0,15.3,1.2,19.1,3.7c3.7,2.5,5.6,6.6,5.6,12.4c0,5.5-1.4,9.6-4.4,12.5c-2.9,3-8.3,4.4-16.1,4.4h-25.8L268.2,79.6L268.2,79.6z
			 M317.1,163.2c-0.8,2.4-2.2,4.5-4.1,6.3c-2,1.8-4.6,3.1-7.9,4.1c-3.2,0.9-7.3,1.4-12.2,1.4h-24.8v-38.5H296
			c8.3,0,14.1,1.6,17.4,4.7c3.3,3.2,5,7.9,5,13.9C318.4,158.1,317.9,160.8,317.1,163.2L317.1,163.2z"></path>
		<path class="st0" d="M358.1,56.4v141.7h27.7V56.4H358.1z"></path>
		<path class="st0" d="M497.6,142c0-15.5-4-27.8-12-36.9c-8-9.2-19.9-13.7-35.8-13.7c-7.7,0-14.7,1.2-21.1,3.7
			c-6.4,2.4-11.8,6-16.3,10.8c-4.6,4.7-8.1,10.6-10.6,17.4c-2.6,6.8-3.8,14.6-3.8,23.3c0,17.4,4.3,31,13,40.5
			c8.7,9.5,21.6,14.3,38.8,14.3c14.3,0,25.2-3,32.7-9c7.5-6,12.1-14.9,14-26.5h-27c-2,9.3-8.5,13.9-19.5,13.9
			c-7.9,0-13.9-2.4-17.8-7.1c-4-4.7-6.1-11.2-6.4-19.5h71.8L497.6,142L497.6,142z M426.2,134.8c0.1-3.2,0.7-6.2,1.8-8.9
			c1-2.7,2.6-5.1,4.5-7.2c1.9-2,4.3-3.7,7.1-4.9c2.8-1.2,6-1.8,9.7-1.8c7.4,0,12.8,2,16.4,5.9c3.5,4,5.2,9.6,5.2,16.7L426.2,134.8
			L426.2,134.8z"></path>
		<path class="st0" d="M594.5,100.6c-5.7-6.2-14.4-9.3-26.2-9.3c-6.1,0-11.9,1.4-17.6,4.1c-5.6,2.8-10.5,7.2-14.6,13.3V94.5h-27
			v103.6H537v-62.3c0-3.1,0.6-5.9,1.8-8.5s2.8-4.8,4.7-6.6c2.3-2,4.7-3.5,7.3-4.6s5.6-1.6,9.3-1.6c4.6,0,8.3,1.3,11.1,3.9
			c2.8,2.7,4.2,7.7,4.2,14.9v64.7H603v-68.5C603,116.4,600.2,106.7,594.5,100.6L594.5,100.6z"></path>
		<path class="st0" d="M688.6,56.4v48.5c-4.5-5.3-9.3-8.9-14.4-10.8c-5.1-1.8-10.2-2.8-15.4-2.8c-7,0-13.3,1.3-18.9,3.9
			c-5.5,2.7-10.2,6.4-14,11.2c-3.9,4.9-6.8,10.6-8.9,17.3c-2.1,6.7-3.1,14-3.1,22.1c0,17.3,3.5,30.9,10.7,40.7
			c7.2,9.8,18,14.8,32.6,14.8c13.4,0,24.2-5.6,32.1-16.9v13.7h27V56.4H688.6L688.6,56.4z M688.8,148.7c0,6-0.7,10.8-1.9,14.6
			c-1.2,3.7-3.2,6.9-5.8,9.6c-4.3,3.8-9.6,5.7-16.3,5.7c-3.1,0-5.9-0.5-8.5-1.6c-2.7-1.1-5-3-6.9-5.6c-2-2.6-3.5-6-4.7-10.1
			c-1.2-4.2-1.7-9.4-1.7-15.6c0-5.7,0.6-10.6,1.8-14.7c1.2-4.1,2.8-7.4,4.9-9.9c2-2.6,4.5-4.4,7.2-5.6c2.8-1.2,5.6-1.8,8.7-1.8
			c2.8,0,5.6,0.3,8.4,1c2.9,0.8,5.5,2.3,7.9,4.7c2.5,2.5,4.3,5.7,5.5,9.7c1.1,3.9,1.7,9.3,1.7,15.9L688.8,148.7L688.8,148.7z"></path>
		<path class="st0" d="M827.3,142c0-15.5-4-27.8-12-36.9c-8-9.2-19.9-13.7-35.8-13.7c-7.7,0-14.7,1.2-21.1,3.7
			c-6.4,2.4-11.8,6-16.3,10.8c-4.6,4.7-8.1,10.6-10.6,17.4c-2.6,6.8-3.8,14.6-3.8,23.3c0,17.4,4.3,31,13,40.5
			c8.7,9.5,21.6,14.3,38.8,14.3c14.3,0,25.2-3,32.7-9c7.5-6,12.1-14.9,14-26.5h-27c-2,9.3-8.5,13.9-19.5,13.9
			c-7.9,0-13.9-2.4-17.8-7.1c-4-4.7-6.1-11.2-6.4-19.5h71.8V142L827.3,142z M755.9,134.8c0.1-3.2,0.7-6.2,1.8-8.9s2.6-5.1,4.5-7.2
			c1.9-2,4.3-3.7,7.1-4.9c2.8-1.2,6-1.8,9.7-1.8c7.4,0,12.8,2,16.4,5.9c3.5,4,5.2,9.6,5.2,16.7L755.9,134.8L755.9,134.8z"></path>
		<path class="st0" d="M900.7,93.1c-1.7-0.2-3.9-0.3-6.6-0.3c-5.4,0-10.6,1.4-15.5,4.1c-4.9,2.7-9,6.8-12.5,12.2V94.5h-27v103.6H867
			v-59.9c0-2.8,0.5-5.5,1.6-8.1c1.2-2.6,2.9-5.1,5.3-7.2c2.2-2,4.7-3.4,7.5-4.1c2.8-0.7,5.6-1.1,8.7-1.1c4.6,0,8.5,0.4,11.7,1.2
			l3.4-25.2C904,93.5,902.4,93.3,900.7,93.1L900.7,93.1z"></path>
		<path class="st0" d="M998.4,156c-1.1-3.7-3.1-6.9-6-9.6c-2.9-2.8-6.7-5-11.4-6.9c-4.8-1.8-10.8-3.4-18.1-4.5l-13.1-2.2
			c-6-1-10-2.3-12-3.9c-2.1-1.5-3.1-3.9-3.1-7.2c0-1,0.3-2.2,0.9-3.4c0.6-1.2,1.6-2.2,3-3.1c1.4-0.9,3.3-1.7,5.7-2.3
			c2.5-0.6,5.6-0.9,9.3-0.9c6.6,0,11.4,1.1,14.4,3.4c3,2.2,5.1,5.8,6.2,10.5l24.8-3.1c-0.8-4.4-2.1-8.5-3.9-12.3
			c-1.8-3.8-4.4-7.2-7.9-9.9c-3.5-2.8-8-5-13.6-6.6c-5.6-1.7-12.5-2.5-20.7-2.5c-6.6,0-12.7,0.7-18.2,2.3
			c-5.5,1.5-10.2,3.7-14.2,6.4c-4,2.8-7.1,6.2-9.3,10.1c-2.2,4-3.3,8.5-3.3,13.5c0,9.8,3.1,17.1,9.3,22c6.2,4.8,15.5,8.2,28.1,10.2
			l14.3,2.4c5.1,0.8,8.5,2.2,10.2,4.1c1.8,2,2.7,4.3,2.7,6.9c0,3.7-1.4,6.4-4.3,8.1c-2.9,1.6-7.6,2.5-14.2,2.5
			c-5.5,0-10.3-1-14.3-2.8c-3.9-1.8-6.4-5.8-7.3-11.9h-26.6c0.4,7,2,12.8,4.9,17.4c2.8,4.7,6.5,8.3,10.9,11.1
			c4.5,2.8,9.5,4.8,15.1,5.9c5.6,1.1,11.5,1.7,17.8,1.7c15.5,0,27-3,34.4-8.9c7.4-5.9,11.1-13.8,11.1-23.5
			C1000,164.1,999.5,159.8,998.4,156L998.4,156z"></path>
	</g>
	<g>
		<polygon class="st0" points="275,0 163,254.5 97.8,254.5 209.9,0 		"></polygon>
		<polygon class="st0" points="177.2,0 65.2,254.5 0,254.5 112.1,0 		"></polygon>
	</g>
</g>
</svg>