<svg xmlns="http://www.w3.org/2000/svg" viewBox="0 0 259 23"><title>Scotch &amp; Soda AU</title> <g fill="none" fill-rule="evenodd"><g fill-rule="nonzero"><g><g><g fill="#000"><path d="M66.834 1.14l-1.563 6.932h.159s1.616-4.855 5.602-5.965c.628-.185 1.279-.282 1.934-.287h.687v18.16c.047.537-.217 1.053-.68 1.329-.676.32-1.412.492-2.16.506v.15h10.345v-.15c-.746-.018-1.48-.187-2.16-.498-.465-.278-.729-.798-.679-1.337V1.858h.967s.574 0 1.178.083c5.436.626 4.334 6.123 4.35 6.139h.143l1.585-6.932-19.708-.008zM257.097 21.052c-.524-.877-.94-1.816-1.238-2.794l-6.275-15.857c-.22-.513-.476-1.08-.702-1.57-.933.64-1.95 1.147-3.02 1.51-.494.182-.998.33-1.511.445l.045.718-6.448 14.875c-.334.906-.81 1.753-1.412 2.507-.458.494-1.048.845-1.7 1.012v.113h5.475v-.113c-.393-.074-.777-.188-1.148-.34-.284-.134-.54-.321-.755-.551-.23-.28-.331-.645-.279-1.004.059-.542.207-1.07.438-1.563l.65-1.51h11.213l.596 1.51c.366.607.487 1.33.34 2.023-.125.452-.431.832-.846 1.05-.548.231-1.134.362-1.729.385v.113h9.87v-.113c-.615-.057-1.18-.363-1.564-.846zm-8.751-4.644h-8.918l5.618-12.935 4.696 11.705c.378 1.344-1.396 1.23-1.396 1.23zM106.787 18.545l-.197-.158c-1.394 1.642-3.474 2.541-5.625 2.431-2.6.056-5.06-1.173-6.577-3.285-1.703-2.308-2.583-5.121-2.5-7.989 0-2.683.547-4.711 1.639-6.086 1.022-1.328 2.613-2.093 4.289-2.061 1.313-.054 2.596.404 3.58 1.276.909.831 1.481 1.968 1.607 3.194.14 1.391-.014 2.796-.453 4.123H102.633l.174-.227 5.112-4.885-.695-.982c-1.696-2.094-4.238-3.14-7.626-3.14-1.557 0-3.104.233-4.591.694-1.464.452-2.845 1.135-4.093 2.023-1.252.897-2.272 2.08-2.975 3.451-.765 1.468-1.154 3.102-1.132 4.757-.075 2.927 1.136 5.74 3.314 7.695 2.334 2.063 5.375 3.145 8.488 3.02 1.753.06 3.496-.292 5.09-1.027 1.268-.64 2.336-1.618 3.088-2.824zM15.434 12.233c-.621-.737-1.394-1.332-2.265-1.745-1.143-.578-2.356-1.004-3.61-1.268-1.486-.288-2.914-.827-4.22-1.593C4.455 7.04 3.925 6.05 3.927 4.99c-.03-1.593.999-3.013 2.522-3.48.29-.09.589-.15.89-.182 1.7-.076 3.355.552 4.577 1.737 1.306 1.268 1.676 2.87 1.374 4.817l3.322-4.198C14.467 1.742 11.66.694 8.767.755c-2.085-.107-4.15.456-5.89 1.608C1.443 3.375.617 5.043.68 6.796c.023 1.577.64 3.087 1.729 4.228 1.155 1.307 3.088 2.266 5.784 2.87 1.462.275 2.87.785 4.168 1.51.819.547 1.287 1.486 1.23 2.47-.001.415-.057.829-.165 1.23-.122.488-.385.93-.755 1.269-.158.16-.327.309-.506.445-1 .625-2.182.892-3.353.755-.933-.057-1.832-.37-2.598-.906-2.567-1.79-2.25-5.165-2.242-5.384 0 0 .053-.181.053-.189L0 19.414c2.518 2.01 5.658 3.079 8.88 3.02 4.667 0 6.652-2.265 7.415-4.266-.003-.023-.003-.046 0-.068.275-.723.41-1.492.4-2.266.003-.616-.097-1.228-.294-1.812-.228-.642-.554-1.246-.967-1.79zM174.481 15.102l-4.024 4.32c2.518 2.009 5.658 3.077 8.88 3.02 4.666 0 6.652-2.266 7.415-4.267-.003-.022-.003-.045 0-.068.274-.723.41-1.491.4-2.265.002-.616-.097-1.228-.294-1.812-.247-.655-.597-1.267-1.035-1.812-.622-.737-1.394-1.332-2.265-1.745-1.143-.578-2.356-1.005-3.61-1.268-1.497-.285-2.935-.824-4.25-1.594-.884-.585-1.414-1.575-1.413-2.635-.01-1.615 1.064-3.036 2.62-3.466.292-.08.59-.134.891-.158 1.7-.077 3.356.551 4.576 1.736 1.307 1.269 1.639 2.87 1.382 4.818l3.345-4.198C184.95 1.749 182.13.692 179.223.755c-2.084-.107-4.148.456-5.89 1.608-1.433 1.012-2.26 2.68-2.197 4.433.02 1.582.638 3.098 1.73 4.244 1.162 1.306 3.088 2.265 5.791 2.869 1.46.276 2.864.786 4.16 1.51.826.554 1.293 1.508 1.224 2.5.001.416-.054.83-.166 1.23-.125.487-.387.927-.755 1.269-.158.16-.327.31-.506.445-1 .626-2.182.892-3.353.756-.933-.058-1.831-.371-2.597-.907-2.56-1.834-2.235-5.21-2.235-5.429.02-.06.038-.12.052-.181zM34.078 9.998h.045l.174-.227 5.15-4.863-.68-1.012C37.06 1.802 34.513.756 31.125.756c-1.559 0-3.109.233-4.598.694-1.46.453-2.84 1.136-4.085 2.023-1.253.897-2.273 2.08-2.975 3.451-.765 1.468-1.155 3.102-1.133 4.757-.075 2.927 1.137 5.74 3.315 7.695 2.334 2.063 5.374 3.145 8.487 3.02 1.753.059 3.496-.293 5.09-1.027 1.27-.651 2.338-1.638 3.088-2.854l-.204-.158c-1.39 1.66-3.478 2.57-5.64 2.461-2.61.066-5.084-1.164-6.608-3.285-1.686-2.314-2.55-5.126-2.454-7.989 0-2.683.546-4.711 1.639-6.086 1.023-1.33 2.618-2.095 4.296-2.061 1.313-.054 2.596.404 3.58 1.276.91.831 1.482 1.968 1.608 3.194.14 1.391-.015 2.796-.453 4.123v.008zM60.227 3.776C57.929 1.782 54.96.732 51.92.838c-3.068-.122-6.068.928-8.39 2.938-2.203 2.014-3.4 4.9-3.269 7.883-.136 2.987 1.062 5.88 3.27 7.898 2.307 2.015 5.298 3.07 8.359 2.953 3.043.107 6.013-.948 8.306-2.953 2.203-2.014 3.4-4.9 3.27-7.883.143-2.983-1.044-5.875-3.24-7.898zm-3.141 15.932c-.8 1.405-2.295 2.27-3.912 2.265-1.564-.038-3.044-.718-4.092-1.88-1.292-1.331-2.268-2.937-2.855-4.696-.66-1.873-.995-3.844-.989-5.83-.088-2.083.437-4.147 1.51-5.935.8-1.369 2.259-2.22 3.844-2.243 1.57.033 3.059.71 4.115 1.873 1.29 1.334 2.268 2.939 2.862 4.697.66 1.864.998 3.828.997 5.807.095 2.082-.419 4.148-1.48 5.942zM233.712 3.708c-2.054-1.722-5.075-2.583-9.062-2.583h-11.115v.159c1.51.18 2.266.694 2.266 1.548V19.7c0 .883-.755 1.6-2.266 2.16v.143h10.534c3.806 0 6.876-.967 9.212-2.9 2.336-1.933 3.501-4.626 3.496-8.08 0-3.156-1.019-5.587-3.065-7.316zm-3.353 15.751c-1.02 1.329-2.631 2.069-4.304 1.978-1.659-.011-3.297-.369-4.81-1.05-.47-.254-.761-.748-.755-1.283V1.608h3.02c2.789 0 4.883.99 6.283 2.968 1.4 1.978 2.101 4.707 2.106 8.185-.025 3.141-.538 5.374-1.54 6.698zM209.261 3.776c-4.877-3.929-11.832-3.929-16.71 0-2.206 2.012-3.406 4.9-3.277 7.883-.134 2.988 1.067 5.882 3.277 7.898 4.866 3.936 11.822 3.936 16.688 0 2.206-2.012 3.406-4.9 3.277-7.883.14-2.985-1.053-5.878-3.255-7.898zm-3.118 15.932c-.809 1.4-2.302 2.264-3.92 2.265-1.575-.028-3.068-.709-4.122-1.88-1.292-1.331-2.267-2.937-2.854-4.696-.663-1.872-1-3.844-.997-5.83-.1-2.08.413-4.143 1.472-5.935.809-1.4 2.302-2.264 3.92-2.265 1.568.03 3.055.708 4.107 1.872 1.293 1.333 2.27 2.938 2.862 4.697.667 1.863 1.007 3.828 1.004 5.807.103 2.09-.41 4.163-1.472 5.965zM122.795 21.898v.143h9.197v-.143c-1.51-.181-2.265-.702-2.265-1.556V2.877c0-.856.755-1.36 2.265-1.51v-.189h-9.197v.159c1.51.173 2.265.687 2.265 1.51v8.63h-9.643v-8.6c0-.856.755-1.36 2.266-1.51v-.189h-9.197v.159c1.51.173 2.265.687 2.265 1.51v17.458c0 .86-.755 1.382-2.265 1.555v.144h9.197v-.106c-1.51-.181-2.266-.702-2.266-1.556v-8.306h9.628v8.306c.015.8-.74 1.345-2.25 1.556z" transform="translate(-590 -50) translate(-1) translate(591 50)"></path></g> <path fill="#010101" d="M163.178 15.147c-.235-1.969-1.28-3.75-2.885-4.915l2.054-2.402.506-.596-.302-.12-2.794 2.717c-.53-.36-1.093-.666-1.684-.913l-.211-.09-.446-.182c-.068 0-6.35-2.265-7.415-3.02-.121-.084-.235-.177-.34-.28-.46-.4-.676-1.015-.566-1.616.054-.53.302-1.022.695-1.382.654-.561 1.493-.86 2.356-.838 1.615 0 2.952.96 2.967 2.137-.004.327-.147.637-.393.853-.06.06-.12.129-.188.19-.565.486-1.219.858-1.926 1.094l-.143.06 3.277 1.231c.577-.542.905-1.3.906-2.091-.002-1.207-.559-2.346-1.51-3.089-1.206-.988-2.817-1.33-4.32-.913l-.173.052c-1.83.594-3.041 2.33-2.968 4.252v.226c.04.604.205 1.192.484 1.73.596 1.064 1.872 2.808 5.882 4.84.775.368 1.532.777 2.265 1.223l-2.854 2.847-.166-.295-.657-1.336c-1.42-2.802-3.527-6.041-7.174-6.041-1.4-.023-2.763.448-3.85 1.329l-.152.12c-1.572 1.376-2.452 3.38-2.401 5.468.063 3.84 3.13 6.954 6.97 7.075.418-.001.835-.041 1.246-.121h.083c1.5-.3 2.9-.976 4.07-1.963.132.161.276.313.43.453 1.267 1.008 2.836 1.558 4.455 1.563h.536c.987-.01 1.96-.24 2.847-.672.206-.09.405-.193.597-.31.185-.112.362-.238.528-.377 1.806-1.386 2.713-3.648 2.364-5.898zM150.56 19.15c-1.03 1.092-2.364 1.85-3.829 2.175h-.068c-.247.072-.5.127-.755.166h-.8c-.28.006-.56-.04-.823-.136-.063-.017-.123-.04-.181-.068-2.339-1.04-3.92-3.277-4.123-5.83-.031-.587.02-1.177.15-1.75.274-1.176.914-2.234 1.828-3.021.553-.444 1.257-.655 1.963-.59 2.198 0 3.338 2.53 4.72 5.377.211.423.408.8.589 1.148.332.657.619 1.223.913 1.729l.43.755v.045h-.014zm10.33.537c-.36.76-1.047 1.316-1.866 1.51-.209.057-.425.085-.641.083-.717-.02-1.405-.287-1.949-.755-1.006-.873-1.806-1.959-2.34-3.18l3.08-3.518c2.908 2.16 4.297 4.296 3.716 5.86z" transform="translate(-590 -50) translate(-1) translate(591 50)"></path></g></g></g></g></svg>